<mxfile host="Electron" modified="2023-08-23T10:06:18.160Z" agent="Mozilla/5.0 (Windows NT 10.0; Win64; x64) AppleWebKit/537.36 (KHTML, like Gecko) draw.io/21.6.8 Chrome/114.0.5735.289 Electron/25.5.0 Safari/537.36" etag="iAaYd1HPJUQ9lv67u3IM" version="21.6.8" type="device">
  <diagram name="Страница — 1" id="h7N3HcpLy49uQtm7WcDo">
    <mxGraphModel dx="1442" dy="1509" grid="1" gridSize="10" guides="1" tooltips="1" connect="1" arrows="1" fold="1" page="1" pageScale="1" pageWidth="827" pageHeight="1169" math="0" shadow="0">
      <root>
        <mxCell id="0" />
        <mxCell id="1" parent="0" />
        <mxCell id="VA9qWfF0PTx1mttRA38H-3" value="" style="shape=image;verticalLabelPosition=bottom;labelBackgroundColor=default;verticalAlign=top;aspect=fixed;imageAspect=0;image=data:image/png,iVBORw0KGgoAAAANSUhEUgAAAcwAAAHMCAIAAADXuQ/RAAAACXBIWXMAAAsTAAALEwEAmpwYAAAgAElEQVR4nO3df3DT953n8a9sg1wbKWVxEZbt7aAMDsVj02JCUdomJCFxpsS3tLOmBd/eNsVnZrrpTC1nNrmdTSOSu9lmB4vubtoZfGaa9A5o7MyGnEMnFKcl01vEpnGumDUlZnBobctRE0+ChAEnDro/vqnj2Pp+vl999f3ox1fPx+SPYEtffayv9NJH7+/nhyORSCgAADmKst0AALAzQhYAJCJkAUAiQhYAJCJkAUAiQhYAJCJkAUAiQhYAJCJkAUAiQhYAJCJkAUAiQhYAJCJkAUAiQhYAJCJkAUAiQhYAJCJkAUAiQhYAJCJkAUAiQhYAJCJkAUAiQhYAJCJkAUAiQhYAJCJkAUAiQhYAJCJkAUAiQhYAJCJkAUAiQhYAJCJkAUAiQhYAJCJkAUAiQhYAJCJkAUAiQhYAJCJkAUAiQhYAJCJkAUAiQhYAJCJkAUAiQhYAJCJkAUAiQhYAJCJkAUAiQhYAJCJkAUAiQhYAJCJkAUAiQhYAJCJkAUAiQhYAJCJkAUAiQhYAJCJkAUAiQhYAJCJkAUAiQhYAJCJkAUAiQhYAJCJkAUAiQhYAJCJkAUAiQhYAJCJkAUAiQhYAJCJkAUAiQhYAJCJkAUAiQhYAJCJkAUAiQhYAJCJkAUAiQhYAJCJkAUAiQhYAJCJkAUAiQhYAJCJkAUAiQhYAJCJkAUAiQhYAJCJkAUAiQhYAJCJkAUAiQhYAJCJkAUAiQhYAJCJkAUAiQhYAJCJkAUAiQhYAJCJkAUAiQhYAJCJkAUAiQhYAJCJkAUAiQhYAJCrJdgNQEI6df/+Jgatav610ffRhX+kuUhRlmdPhWupY5nS4nI5Kd5H627n/AfKLI5FIZLsNsLnJ2I3vPH9lMn4j/UNVuooq3UXLnI7aimI1dtdUFLucjvSPDEhCyEK6JwauHjv/vrzju5yONRXFayqKve4i9X+IXeQOQhZyiQsFkqypKK50FzVWlaypKN5QRU0M2UTIQiILCwXp2FBVsqai+A7fEgIXmUfIQiLZhQITNlSVqGm7pqI4221BQSBkIcuzZ2b2//patluhqdJVtKGqZNvnltK9hVSELKSYjN34L8/G4zN58OoibSEVIQspvvP8ldcnZrPditSoadv2xVIG5MJChCysl+OFAl1rKoq/ud657XNLs90Q2AEhC4vlUaFAjI4tLEHIwmJ/9bP4hXc+zHYrrLRt7dJvft7JaASYQ8jCSj2vXu959Xq2WyHFhqqStk2lXBxDqghZWGYyduNrP41luxVybagqeXRrGQUEGEfIwjJfeyaW9cldmbFt7VJqtTCIkIU1bFwo0NK2qfQb650sRgMxQhYWKIRCQVKVrqK2TaUM9oIAIQsLFE6hICmqBxDgZYF09bx6vZATVlGUY+ff/86/Xjn2u9xaCgc5gp4s0lKwhYKktq1d+r2vfIoqLeYjZJGWAi8ULFbpKvrx15dROsAcXgowj0LBYpPxG3/1s/jPzsxkuyHIFfRkYRKFArG2TaVtm0qz3QpkHyELkygU6KJEC4VyAcyhUGDEsfPv58IWZ8guQhYpe31ittAmd5l24Z0Pv/Ov5GxBI2SRmvhMIvNbfOe1yfgNcraQEbJIzUEKBakjZwsZIYsUvD4xy+AkcybjN/722LQNNoxAqghZGEWhIE0X3vnw4Z9PZ7sVyDRCFkb98NfX+MKbptcnZn+Yz1tMwgRCFoYcO//+sfMsgGKBn52ZoeRSUAhZ6JuM3ej5d8ZsWeaHv75ms70mIUDIQh9TDyzHRbDCQchCB4UCGSbjNyjOFghCFiIUCuQ5dv79V0Y/yHYrIB0hCxEKBVI98fJViga2R8hCE4UC2a7MJA6yCoTdEbJIjkJBZvzszMzrE7PZbgUkImSRHIWCjGFJM3sjZJEEhYJMen1ilp1ubYyQxUIUCjKPzqyNEbJYiEJB5k3Gb9CZtStCFp/w7JkZCgVZ8SwLGtgUIYuPTcZu8L01W0be+ZBhBrZEyOJjjI3PLj7hbImQxUeeZcBmtr0+McvqXPZDyEJRKBTkDFYzsB9CFoqiKH/7c1beywms520/hCyUnlev8y01R1yZSVC0sRlCttBRKMg1VAxshpAtdN95/kq2m4BPYJyyzRCyBY3JXTmIioHNELKFi0JBziJk7YSQLVwUCnIWIWsnhGyBolCQy0YY7GEjhGwholCQ4yjL2gkhW4goFOQ+OrO2QcgWHAoFeeHC24SsTRCyhYVCQb5gDp5tELKFhUJBvojwbcMuCNkCQqEgj1yZSXCy7IGQLRSvT8xSKMgvlGXtgZAtCPGZxBMDV7PdCqQm/j6LT9oBIVsQDlIoyEOTMU6ZHRCy9vf6xCxLQecjQtYeCFmbo1CQvygX2AMha3M//PU1CgV56i16srZAyNrZsfPvswJ0/mLXNXsgZG1rMnaj598ZswVkGSFrW0w9yHfUZO2BkLUnCgU2cIVygS0QsjZEoQDIHYSsDVEoAHKHI5HgKwkyIT6TuPJ+QlGUKzOJ+ExC/edk7Mb/PfOHU797p8RZWlbhLXGWZruZueX0g5/OdhOQrpJsNwCFwuV0uJwORVEU18c/vDQx9T/+7qeXJqbmflJW4XW6P122orKswlteUel0L894SwErEbLIpgc+mbCKolx9J3L1nci7o+fUf5Y4S11VPrd3tavKV17hzUYbgbQQssiavT968eSrI+LbzM5cf3f0nJq5Ttdyd5Xv06vX/ZlvXUYamGXL1I4/8hw1WWTHpYmp1Vv/3tx9S5yly1fXVazd4K7yWduqnFLpKnr+r93ZbgXSRU8WWfBe/Oqdf73f9N1nZ66/fX7w7fODTtfyqk13u70+W5ZuXfRkbYGQRRbsferYglKsOTPxd0dffk7t2FbderfNopZygT0Qssi0p58P//Cnv7TwgHMd2+pNWz0NX2IcGHIKkxGQUZcmpvb+6Jikg4+/OvAfz/7z2+cHJR0/wypdvD3tgLOIjOr4h+csKRRoUQsIoy8/NxN7V96jZEalm7enHXAWkTn/9NNfHn35txl4oLfPD/7u6P+cfieSgceSh5qsPRCyyJBLE1Pf+4e+jD3cTPzd/3j2X94a+reMPaLlaiuKs90EWICQRYakM2bLtN//+sWJ37yc+ce1BEO47IGQRSbs/dGLUkuxAuOvDuRpzq6hJ2sLhCykO/nqSPApWSMKjMjHnKVWYBuELOS6NDH1wN/9NNutUMZfHciv+ixXvWyDkIVcwR9ZM7krfeOvDuTReIMNVUwUsglCFhI9/Xz4mefD2W7FRz6cuX7h5/97diY/NuahXGAbhCxkkTq5y5yZ+LuR3wxkuxWGMBPBNjiRkCV3CgXzTZ75t9jEaLZboWOZ08HQAtug7gMpnjk1/r/eWVH0lfsVRVFmP0jMfqB8+IEyO6vMfqBcv6pcv5aYuapcv6bMXFVmZzPctonfvJzjC9FSkLUTziWsd2nqWqB3+ON/lyxxlCxZcJu5a+eJ6cvK9WvKlVji8pQyfTkDmRubGI1NjOZyzhKydsK5hPXu2hd+76rRrHSU36SU36SsWKXGbuLylPLeVGLqLWU6Jq+FOd6ZbSRkbYRzCYvt7b/w+6lrpu/uuGmFctMKx2drletXE5enEhNvykjbXO7MVrqKKMjaCSELK518Y+rxfp29EY0qLXOUljk8NYnpy8rEm4nouDWH/ZN3R8/lZshSK7AZRhfAMpemrn376TOWH9ZRfpOj9vNFt97l+GytUvopqw779huDuTlm9g7fwvo18hohC8sEnh1Op1Cgo7TM8ee1RfV+R9VqS4734cz1qzk5AewL9GTthZCFNfb2X3jht1HpD1Na5vDVFd16l3LTivQP9vb519M/iLVu9y1hhUObIWRhgUtT1ywrxRpRWlbU4HfcvE4pSavTF8+9WQl3rKZWYDeELNL13tXZu/ZlYYECh9dX9IXb06nSzsTfzamtwCpdRds+tzTbrYDFCFmka2//iMRSrFhpWdEXblfK3aYPkFNTbBlXYEuELNLyzKnxf375zWy2oGRJ0YbbFU+NuXtffWfS2uako+2LpdluAqxHyMK8S1PX9mayFKutqHa9uZydfT9XRnFtqCqpdPF+tCFOKsy7a184a4WCRYp860zUDa7lzCiubWupxtoTIQuT0pw+a72SJUXrNqY63iBH5iNwycvGCFmYYeX0WQuVljnW3ZrSPWbiOTG6oG0T1VjbImSRMknTZy3huGmFssKT0l2yPoqLbqy9EbJI2eNZHLNlQJGvLs1JChlGN9beCFmkZm//hWdOWbwglsVKyxzeXFxeKym6sbZHyCIFmZ4+a5bDU53tJhhFN9b2CFkYla3ps2aUllmygoxst/uW0I21PUIWRmVz+mzqHCle/sqKjq9YtjwuchYhC0OyP302RY4VqwzestiZnaRr21TKFK9CwDmGvtyZPpuC0jKDYwxKnFmoila6iqjGFghCFvq+/qPX8qhQ8DFnme5NirORsIqi/Pjry7LyuMg8QhY69vZfODMucXdueRzL9JcyKK+ozEBLFqBQUFA40xDJ0emz1sl8QXZNRTGFgoJCyEJTLk+fNcRAuaBsRUZ7spWuon/cVp7JR0TWEbLQlOPTZ/XNfqB7kwyXC/5xWzmFgkLD+UZy//Tym7k+fVbXh/oh66q6OQMNUbVtKl1TUZyxh0OOIGSRxKWpa4Fnz2W7FelKXNfphpdXVGZs/FbbplJKsYWJkEUSeTN9VkyvXPCpCm9mGrJt7VIStmARslio49lz+V2KVc1+oEzrjDz7zNoNGWjImoriR7fqX4KDXRGy+IS8mz6rJXFFJ2GdruXuKukrIq6pKP7x15h3UNAIWXwsL6fPark8Jf69K1MJ63I6ZD8Qchkhi499+ydn7FAoUBRFURJTb4lvsGr9bVIbQMJCRcjiI3v7L7wyotP7yxeJ61fFBVl31epymVe97vAtIWGhyqetkCDPmbGYrabP6nVjK9Y2ynvwb6x3slAs5hCyUC5NXfvaj1/LdiuslIiIrt05Xcs/Iy1kGQ+LBQhZ5P/02U9KRMcU4TSEqk13y3hcl9PxvS9/iu1ksAAhW+jsMH32kxJR0Z9TsbZRRje20lX0468vY10CLEbIFrR82X3WuMR7U+LBW9W3Wt+NvcO35O/vLuMyF5IiZAvaXfvC712dzXYrrJS48FvBb6tvvdvpXm7hw7mcjt2bSr+53mnhMWEzhGzh2tt/wU6lWEWvGuuuWl21aauFD7ehquTRrWWUCCBGyBaoZ06N261QcP1q4g+af5HTtdx3V4tVj0UHFsYRsoXIVtNn/yTxhxGtbmyJs7T2q//ZqkIBHVikhJAtRHaaPqtKTIwq2oMK/vzL95dZMb+LQVowgZAtOHaaPqsSFwqqb707/TFbLqfjG+ud31jvZAgBUuVIJBLZbgMy59LUtZv/2y+z3QorJa5fTZwNaxUKqm+9O/2LXdvWLm37Ipt4wyR6sgXk0tQ1m2x5ME9i5IxWwn72y/evWv+ldA6+oaqk4yufYmMupIOQLSA2mz6rKEri4nDSqQclztLVd7X8mW+d6SPf7lvyzfXODVW8QZAuXkOFwobTZ38/knQhGKdr+ee2/1dzYwlcTsdX1y795uedFAdgFUK2INhw+uzvR5Je7FruW+e7q8XEHrRc2oIkhGxBsNn02aQJW+Isrbp1q4ki7IaqkrZNpVQGIAkvLPuz2fTZxMXhxVUCd9Vq310tKZUINlSVbKgqoesK2QhZm3vh/0VtUyhIzH6QOPfagitdTtfyP//y/cavcVW6irZ9bqmasBLaCCzE68zOLk1d6+gdznYrrLF4PGyJs9TT8KVV679spAKrpirZiszjBWdntpk+m5h6KzHyW2X2o7KywXh1OR1qqn517VJqAsgWQta2bDN9dn4RVjdeXU7HmoriO3xL1lQU02lFLmBarT3ZY/psYvpy4o0z6ube7qrVVbdudVf5Ft+s0lW0oaqk9jPFG6pKmJ2FXMNHvQ29d3XWBtNn1XFa7qrVy7/wlYq1G+e6rpWuotrPFK9yFdV+pri2oniVq4hSAHIZPVkb+vbTZ/J6cpfzxodriqZdK1bVra+vrihb5nR43UVqqi5b6iBSkV8IWQCQiAnaACARIQsAEhGyACARIQsAEhGyACARIQsAEhGyACARIQsAEhGyACARIQsAEhGyACARIQsAEhGyACARIQsAEhGyACARIQsAEhGyACARIQsAEhGyACARIQsAEhGyACARIQsAEhGyACARIQsAEhGyACARIQsAEhGyACARIQsAEhGyACARIQsAEhGyACARIQsAEhGyACARIQsAEhGyACARIQsAEhGyACARIQsAEhGyACARIQsAEhGyACARIQsAEhGyACARIQsAEhGyACARIQsAEhGyACARIQsAEhGyACARIQsAEhGyACARIQsAEhGyACARIQsAEhGyACARIQsAEhGyACARIQsAEhGyACARIQsAEhGyACARIQsAEhGyACARIQsAEhGyACARIQsAEhGyACARIQsAEhGyACARIQsAEhGyACARIQsAEpVkuwHpGp+Mmr6ve9kyt6vcwsYAwAL5HbJjkai/+YE0D+J2lddUeqq9K2sqV/k31ld7V9bV3mxJ8wDAkUgkst0G8ywJ2cVqvJ51taubttx228b66kqP5ccHUDgIWR0tzVt3NG/1NzZIfRQAdkXIGlLj9YSCHUQtgFQxusCQsUi0pf2RjmAonetsAAoQIZuCvv6BlvZHevsHst0QAHkjv0cXZN5YJBoIhsYj0cCe1my3BbBMLD790slTSX9V4/VQKEsHIWtGqPvQ+GQ0FAxkuyGANS7HrwSC+5P+yt9Y39dNyJpn55DdHwy0NG/V+m0sPj02+VYsPj0WiZ57483hkYvDI6Ox+LTBg6tFA3IWgJidQ1bM7Sqvc92sKIq/UVGaP/pheHCot38gPDg0Hvmj7hF6+wfcy8qDD+2R2k4Aea1wQzYpf2ODv7FhPBLtfXGg5/BR3Y5tz5EX1t1y8w7t/jKAAsfogiSqvZ5Ae+svDj/lb6zXvXGw6wDjugBoIWQ1VXs9fd1P6o4iiMWnH9t3IDNNApB3CFkdgfZW3Zw9fvJ0eHAoM+0BkF8IWX2B9ta2XdvFtwkdOJSZxgDIL4SsIYH21mrvSsENwoNn6cwCWIzRBYa4XeX7g4GW9kcEtzn+q9PpTIyJxad7+08Mj4yee2N0bDI6f2BDXa2v2rvS39jg31gvb61bcQPcrvKmLX6pDdBqz4IRdW5XeV2tr6725qY7N2dsJlJ4cOj4r06HB4fmPzNqS5q2+O+70y9pSczw4FD4tbPqIO4FwwrVV0Vd7c3+jfX5NSNLfTLHJt9a8EfNnVn1L7LNgvp2XoVLPBnBhJb2h8ODZ7V+63aVnzvZZ+Kwvf0n+voHBEeer67Wt3vXdmsHjYUHh0IHDhlsQI3X09HeaqIBgpO1oPBtvD2mG6MoSiAYSroMRbXXc7r/J3P/HB65GNzXrduYluatnXtarYra4ZGLff/n5d4XTxicHVPj9WxurDfegN7+E1rzu1Lib6zv637S4I3HI9Gewy8Y/6OsfUqziHJBCsRXwGLx6VTHcvX2n9jc/K1AcL/BgFMUZXhkNBAM+ZsfsGSdmvDg0Obmb7W0P2K8AerqDVY1YIFYfHp35+PG2yO1MYqi9Bw+2rTzu0Ya09c/cO/OB3sOH03zEccj0d2djzft/G7PEf1h2nPGItG+/oHN9z+QmwvFxeLTHcHQ5uYHUvqjcvkvSgkhm4K62pvFX2Fe+lXY4KFi8emW9ocDwf1GppYtpoZLMI2hY3NxlmYDjL9ndI1Hovfu+pvjJ0/nQmMURekIhoJd3cZvH4tPB7u607kE2nP46L27HjTxDMxRF4pLP+st1Ns/sLn5W31mPwXVv2h45KK1rcokQjYFble5uPhlMLDUNDHeedTSc+SFlvaHTSSL6TizqgFJm/SXex42l/jzG2NVrye4r9tcLoS6D5nIOLWvF+zqTv/JHItEg13d6XwAWyh04FAgGErzjxqLRJt2fjd/lxglZFMjngM2NvmW7hHST5P5woNng12pvZ2sbcDwyOjuzsfTPEgsPm1Jk4ZHRncHnkg/p3r7T/QcMd8ZVBdpM3579WuN6b5eUj1HXggEQxYe0ITQgUOhbsuGNga7DuRpf5aQTU2NV1SGHx55U3x3gwFX7V3pb6xX/6ur9Ylv3Ns/YLzrJKMB4cGzafabeo4ctTD0U/3UWSzNaIjFpzseSyHgOoJdwyOj6TxiUr39A1nMWSMJqw4nmHuliWtxsfh0W+d/t7YilBkM4UpNtTBkxyM6/RdxwLld5W27tu9o3rrgiqq6YE1v/wmt+wa7ug2OInqs64C5BpwaHAp1H9K6b8+RF5ru9Fs7kEgdNKaOHqvxetQVKcODQ7p51Ns/sK7Wpzt/REvSk+hvrJ+ryCcdULWAOm7ayBMSOnBIt27jdpX7Gz8a1VTj9ajrc4YHh3TvmOZTYdrxk2Fxwvob6wN7Whdf5BAPLBmLRDuCXQe7vm9lW+UjZFPjXmZ+7F7ogGZIKYrStmt7oL016Ye5umDNjvu3dgRDWq+/jsdCuoNpevtPCN6W4gbs8N5zW2PDY10HtI4QOnDIqqWd1axv27l9fmPmVqQMDw51BEPijAt1H9rRfI8lAy1bmrfu7dyz+FCh7kPia1xGxk2PR6LiMEr6VKjadm0fj0S7ug+J6wyh7kOLP4Bva2zo6/7B/J/E4tO7O59IeoS6Wl/woXat5i3+4Xgk+pj2lwnxnqT+xoa+7obe/hNa5Wl1Cnt+jQumXJCam1zLxDfQ+jozHokKynzBh9qDne3iUFAXrNH68q475Uz8fg7saTXSgINd39eqSls1563G6/nFkae04l5RFH9jw+n+p3WH01lyhT0UDOwPBpK2RHdRi5de0R9q8pd7Hhb8VvepqPZ69gcDp/t/IpiOmLR2Ue31qKt6zv23TrsopF7vTfpf0pkpvf0DWh+BNV5PX/cPdCNyR/M9B7se1fpt3k1hJ2RTo9s5il25kvTnXd2HtPI3sKe1bafRL3QHux7VasPxX4m+PL70SljrpR/Y0xpoN7pl2cGu72s1IP3rvzVez/HDTxmpe+hmXEpDMpMKPtQunuYQaG8VXAgdj0TFDRDUf5Q/5ZGRp6La63nuwJOCnM3knG/BZ7nxv0hRFH9jg1aVIzx4Nr8qs4RsanTPrtZrSOtVXuP1GA84Rf3mfv89SX/V++IJwR21enapNsDtKtdqwPGT4XRe/eqb0Ph3/EB7a9OWzVq/VWflmm6Mv7HeyCefOOjF0Sb+mm88j5Q/dWkFN8jY+KdT2n9yR3tq07cEL8t0zmzmEbKpuRxP3lEVE/RZOlIJOFXTncmTJRaf1npXCzbUsbYB6QyySfVNqCjK/mCnIJSPnzQ6N2Qxg7sRi+enCD5yxiNRwUDplkXXHnX5GxsE3eo0P/+MO3j4haQ/r/F6Up39rF7uS/qrdM5s5hGyqRGPf9R6v2m9ndyuchPz7gVLtAy/kfzKu6Ajc98Wv4UNEJcsBEy8CRVht1pJ43ul8U2w3a7yGu00HNMebSLo8SmK0mlqw3nBB0MsPp2BYBqPRLXGfuze+RcmDqj1Sktpz9OsI2RTIz61Wu83rQ6m7hDUpNyucu00T/5A5zTCVx0gZaIBWhVA0z1ZEx1qlVa3WmWuPetqVxu/cd0tZk6iYJiHv7He3Koo/sYGQWVW6wPYQoLRdeaeJa0/JxafHovoT/zJEQzhSk34NdFc2KSviVh8Wuur+vjkHzssHS6uNRtC69U/Nhk11wCtDxvTg+pNdKhV6uhRzfa8MWpiuE9Kd3Ev0xlwkpRgSHWT2adCUZT77rhNaxBLBq59Cd4doQOHqr0p14UFFwbPjbxZd0uGVt1MEyGbGnHPKOm3G8FdxiJRwTdKE2LJSsaCh4jFp62dzWnuS5y5DvUcf2OD1ndhcxPJdAfqzWeu5ZZ3+lT+jfVaITsmfy0rwUOEB88qaS/W8YnHsvSNIxXlghSIL1YoiuLfqL+7rVRJMy7DK8WZeDjxrhO6BFXRyxoj6rJLp+gknFUoJhjumoEiZtLPeGmPRU3WjnqOJL9yOidpTzbDH7n5uPimO5WeY7K759kS+uIxKvm7THUGOstzcvPjMylC1qjxSPSlk6cEN2jasjnv3u3IQXnUR4MRhKxRPYdfEBf4mrbclrHGYL6867yLa75akwaNyO5TcZOpa4C2x4UvQ8KDQ+IFRgXDPAUlNsFgLNMWX+wWfBmX0QATtEaYGSQoyAjKtVmkPu2CERGmKwaCp0K8gJwlBK+lNMvui+XmmU2KkNU3HtEf5yQY5il4w/gb6zOwbpvg5VhT6Tl+5CnZDdClji03HfeCq5HpXKmXqqbSMxxP/tEy/Mao6VFcgqeiptLimEvyEF6PVgMO7ns0X0ZcWY5ygQ4jq1yLZyvVeD2pzgSzlqC7mskrFWKmZ6OLJzJVy08WcwTpn86AVsF9M7CXu2BsQ2Ze6rmJkBUJDw4Z2UcgFOwQ30BrZpdgtQFraY2uz1gDdJme9PmS9h3drvKc7T1t1l5nwPSiWeJlvcRT4ywh+OTIr9UGrEXIJheLTwf3dRvZzLVt13bdCUKCG2RmY1HB0iE5sjpnePCsiadiPBIVTKYQb8iWXfdtuU1QHjF3UgTrBRtfjSEdguVyMrncYq4hZBeKxadDBw5tbv6Wka30aryeYGfyRePnE0xSOH7ytIkPeXXrPeOXknc0i1ZRMRf0Fm4Nq0p1/0FFb9HrXB7voW5vpfVbEydFvO+GoOOsEgx4GJs0OmtO/EcF95nZi7fn8NEc6QeYRsh+RF2mqCMY2tz8rZD2AtvzqeufGjm4eBm6jmAopXVMYvHpjmBXePDsvTsfNBjQglXjFEUJdnWnupCKuhHOvTsftLAnHotPt7Q/YjxnxZvQmFvWKxqB5NkAAAa+SURBVJPEqymGug8ZPym9/QPibWx0l/USdKt1Vx+fT/BHmdjjcnjkYrCrO9R9aHfn43k3UG+OnUN2LPJWeHBI67/e/hO9/SeC+7rVYF23pWV35xN9/QMGX08pLfOu6C1D19L+iMFllccj0Zb2h9U1nNR9mQx+zovf0k07v2swLufvXx2LTwe7ui3saIxFokZyNhaf3t35uHjVhZbcTlhFUfyNDeJFxw2+KnoOHxXvSmtwdVrBKCvjlyXF/Yne/gHjX4B6Dh9t2vld9f+Pnzyd0gdwTnEkEolst8G8sUjU3/xA5h831YRVtbQ/rLP0QWN9YE+r4CJVz+GjSXdVadqyWbx8tWp35+Pi/U3Fm9wJGuBvrN+/NyB+QlI6WS3NWzv3JFnDOxaffunkKcG+uSp1GxvxExIIhrQibH8wYDyjBXtf6+6RMx6J3rvrQfHnutZToejt7aoy/lrd3fmE1hejpAfRGnUXHhxqaX9E3KSW+7fu+E+a0a/1d7ld5cHOPTn+BWUxQjZlRgIlKSPvKEVRaryepjv81d6Vdbf4YvHpy/Er45E/qlthC+5r5L0Ui0/fu+tvdC/l1Xg9mxvr62p96jQKtQHDIxfFa2DrNsDEyZq/EXcsPj02+ZbBdbhDwYDuWzEXQlZRlJ4jR4P7unUfpa7Wt+4W39yQ57HJqGC3i/kOdj1qcNSt4A9RzZ2OuXOxt3NP0icq2NVt5IuRus953S0+t6t8LBJVFwV96ZVT4r/LyLOaU5iMkJq2XduNXOlKSt2ISWvj5Tljwn1t0+F2le8PBsS9DOVPCzD2yWhBisKDZ02Mr2zbtT2POjttO7er11rFNxseGTWxVm9gT6vxeQ3+jfWKMO2Nn45gZ3v4tSHdBps7v4oj5Xtkl51rstbyN9YfP/IvphNW1bTFL+ND2PhXQn9jg+6oXhPcrnIT9ZP5d7dquFVdrS/Nc5R5gfZWrZ1Z0zpsKpsQK3rl1FT1dYs20DUt1T8qFxCy+vyN9X3dP+jrftKSOTOB9tbgQ1amQKoFYnVTewuXLDBXoZ7P7Vq2PxhI/z1ZV+vr634yzYNkRbCz3dpPX3NhlGobBEsluF3lzx140twGS1ryMWEVQlZsLl6tHcjdtnP76f6fWPI5r7Yw1YBr2uL/xeGnLGxA+h8/1V7PcwfS6vu07dp+/IjOxa5cFmhvDQU70j8p6meeuTDyNzZY2AOo9nqOH3nKkg8Pt6s8+FB7PiasQk12MfWrq7+xYUfzPfLesdVez+n+p0Pdh8RTIQXcrvLAnta2nSa/ZqoN6O0/oXulXlIDkjbpuQNPdnUfSnVHHHVKSDpbY+WIHc333NbY0HPkBXOjj92u8rZd29t2bk/ndaue0NABQ0PFjQi0t+64f6s6sNrcEUxfas4RhR6y1d6VNy1bVu1dWVO5at0tq2/b2JDJc6m+/k4NDqWUdHW1vqY7/Wm+l1Q7mu/Z0XxPqlFb7V25o/keSxqw6Mie/cHAjuatuiOTVJbESk6p9nqCne1tO//ipVfCPYePGjwp1p6Rtp3b77vDb+LTTku119PX/WR4cKi3f8D4MdXujpFp6zkuv4dw2cnwyMXwa2fVcTljk5+YY+N2lddUetbd4qur9d13p1/Sx8B4JHpqcOj4yXAsPr1guJi6jpe/saGu1uffWG+uOCAYwlXt9Zzu/8ni9rx0MjzXnnk3XllT6amrvbnpzs35/vbTNf9VMf9JmH9G6m7xSXoexiPR4ZHR4TdGh0cuzr0eqr2emkpPtXeluR6JuiZR+LWzwyMXxyajCz5Fqr0r62p9NZWr/Bvr1X2IrflLsoqQRYakGrKAPXDhCwAkImQBQCJCFgAkImQBQCJCFgAkImQBQCJCFgAkImQBQCJCFgAkImQBQCJCFgAkImQBQCJCFgAkImQBQCJCFgAkKvSdEZBJDkfy3Zy1fg7YAIt2A4BElAsAQCJCFgAkImQBQCJCFgAkImQBQCJCFgAkImQBQCJCFgAkImQBQCJCFgAkImQBQCJCFgAkImQBQCJCFgAkImQBQCJCFgAkImQBQCJCFgAkImQBQCJCFgAkImQBQCJCFgAkImQBQCJCFgAkImQBQCJCFgAkImQBQCJCFgAkImQBQCJCFgAkImQBQCJCFgAkImQBQCJCFgAkImQBQCJCFgAkImQBQCJCFgAkImQBQCJCFgAkImQBQCJCFgAkImQBQCJCFgAkImQBQCJCFgAkImQBQCJCFgAkImQBQCJCFgAkImQBQCJCFgAkImQBQCJCFgAkImQBQCJCFgAkImQBQCJCFgAkImQBQKL/D7jBJY7qglyfAAAAAElFTkSuQmCC;" parent="1" vertex="1">
          <mxGeometry x="827" y="10" width="460" height="460" as="geometry" />
        </mxCell>
        <mxCell id="VA9qWfF0PTx1mttRA38H-4" value="" style="shape=image;verticalLabelPosition=bottom;labelBackgroundColor=default;verticalAlign=top;aspect=fixed;imageAspect=0;image=https://1000logos.net/wp-content/uploads/2021/05/GitHub-logo.png;" parent="1" vertex="1">
          <mxGeometry x="1500" y="85" width="551.11" height="310" as="geometry" />
        </mxCell>
        <mxCell id="VA9qWfF0PTx1mttRA38H-6" value="" style="shape=image;verticalLabelPosition=bottom;labelBackgroundColor=default;verticalAlign=top;aspect=fixed;imageAspect=0;image=https://i.pinimg.com/originals/60/9d/f9/609df9ec5527ffa5f94173de930ab284.jpg;" parent="1" vertex="1">
          <mxGeometry x="2908" y="47.5" width="445" height="445" as="geometry" />
        </mxCell>
        <mxCell id="VA9qWfF0PTx1mttRA38H-9" value="" style="shape=flexArrow;endArrow=classic;html=1;rounded=0;endWidth=86.93333333333334;endSize=29.71428571428572;width=45.714285714285715;fillColor=#dae8fc;strokeColor=#6c8ebf;" parent="1" edge="1">
          <mxGeometry width="50" height="50" relative="1" as="geometry">
            <mxPoint x="1330" y="230" as="sourcePoint" />
            <mxPoint x="1580" y="230" as="targetPoint" />
          </mxGeometry>
        </mxCell>
        <mxCell id="VA9qWfF0PTx1mttRA38H-10" value="" style="shape=flexArrow;endArrow=classic;html=1;rounded=0;endWidth=86.93333333333334;endSize=29.71428571428572;width=45.714285714285715;fillColor=#dae8fc;strokeColor=#6c8ebf;" parent="1" edge="1">
          <mxGeometry width="50" height="50" relative="1" as="geometry">
            <mxPoint x="1972" y="238.57" as="sourcePoint" />
            <mxPoint x="2222" y="238.57" as="targetPoint" />
          </mxGeometry>
        </mxCell>
        <mxCell id="VA9qWfF0PTx1mttRA38H-11" value="" style="shape=flexArrow;endArrow=classic;html=1;rounded=0;endWidth=86.93333333333334;endSize=29.71428571428572;width=45.714285714285715;fillColor=#dae8fc;strokeColor=#6c8ebf;" parent="1" edge="1">
          <mxGeometry width="50" height="50" relative="1" as="geometry">
            <mxPoint x="2720" y="236.07" as="sourcePoint" />
            <mxPoint x="2970" y="236.07" as="targetPoint" />
          </mxGeometry>
        </mxCell>
        <mxCell id="98eGJt8SNqx1WwoLdxlE-2" value="" style="group" vertex="1" connectable="0" parent="1">
          <mxGeometry x="2260" y="90" width="450" height="360" as="geometry" />
        </mxCell>
        <mxCell id="VA9qWfF0PTx1mttRA38H-5" value="" style="shape=image;verticalLabelPosition=bottom;labelBackgroundColor=default;verticalAlign=top;aspect=fixed;imageAspect=0;image=https://upload.wikimedia.org/wikipedia/commons/thumb/b/b8/Netlify_logo.svg/2560px-Netlify_logo.svg.png;clipPath=inset(0% 0% 0% 33.33%);" parent="98eGJt8SNqx1WwoLdxlE-2" vertex="1">
          <mxGeometry y="172.79999999999998" width="449.9999999999999" height="184.49990538466386" as="geometry" />
        </mxCell>
        <mxCell id="98eGJt8SNqx1WwoLdxlE-1" value="" style="shape=image;verticalLabelPosition=bottom;labelBackgroundColor=default;verticalAlign=top;aspect=fixed;imageAspect=0;image=https://upload.wikimedia.org/wikipedia/commons/thumb/b/b8/Netlify_logo.svg/2560px-Netlify_logo.svg.png;clipPath=inset(0% 72% 0% 0%);" vertex="1" parent="98eGJt8SNqx1WwoLdxlE-2">
          <mxGeometry x="122.99993692310923" width="193.84790059082013" height="189.23067218939883" as="geometry" />
        </mxCell>
        <mxCell id="98eGJt8SNqx1WwoLdxlE-7" value="&lt;font style=&quot;font-size: 64px;&quot;&gt;Development&lt;/font&gt;" style="text;html=1;strokeColor=none;fillColor=none;align=center;verticalAlign=middle;whiteSpace=wrap;rounded=0;" vertex="1" parent="1">
          <mxGeometry x="832" y="520" width="450" height="170" as="geometry" />
        </mxCell>
        <mxCell id="98eGJt8SNqx1WwoLdxlE-9" value="&lt;font style=&quot;font-size: 64px;&quot;&gt;Database&lt;/font&gt;" style="text;html=1;strokeColor=none;fillColor=none;align=center;verticalAlign=middle;whiteSpace=wrap;rounded=0;" vertex="1" parent="1">
          <mxGeometry x="1550.56" y="520" width="450" height="170" as="geometry" />
        </mxCell>
        <mxCell id="98eGJt8SNqx1WwoLdxlE-10" value="&lt;font style=&quot;font-size: 64px;&quot;&gt;Server&lt;/font&gt;" style="text;html=1;strokeColor=none;fillColor=none;align=center;verticalAlign=middle;whiteSpace=wrap;rounded=0;" vertex="1" parent="1">
          <mxGeometry x="2260" y="520" width="450" height="170" as="geometry" />
        </mxCell>
        <mxCell id="98eGJt8SNqx1WwoLdxlE-11" value="&lt;font style=&quot;font-size: 64px;&quot;&gt;UI&lt;/font&gt;" style="text;html=1;strokeColor=none;fillColor=none;align=center;verticalAlign=middle;whiteSpace=wrap;rounded=0;" vertex="1" parent="1">
          <mxGeometry x="2908" y="520" width="450" height="170" as="geometry" />
        </mxCell>
      </root>
    </mxGraphModel>
  </diagram>
</mxfile>
